<?xml version="1.0" encoding="UTF-8"?> <svg xmlns="http://www.w3.org/2000/svg" xmlns:xlink="http://www.w3.org/1999/xlink" width="300px" height="70px" viewBox="0 0 300 70"><!-- Generator: Sketch 57.1 (83088) - https://sketch.com --><title>Logos/Moneybox/White@1.5x</title><desc>Created with Sketch.</desc><g id="Pension-Contibutions" stroke="none" stroke-width="1" fill="none" fill-rule="evenodd"><g id="Logos/Moneybox/Aqua" fill="#00C2B5"><path d="M168.716651,23.2030963 L168.716651,40.361103 C168.716651,46.2112027 171.316412,48.0299402 175.215415,48.0299402 C179.441595,48.0299402 182.625382,45.2360532 182.625382,39.7771827 L182.625382,23.2030963 L190.424452,23.2030963 L190.424452,54.4001728 C190.424452,63.4991761 184.770498,69.544093 174.955482,69.544093 C166.766618,69.544093 162.347482,64.9939269 160.787615,59.2100066 L168.067615,57.71499 C168.716651,60.8990432 170.862458,62.8490764 174.955482,62.8490764 C179.700465,62.8490764 182.625382,59.9249568 182.625382,54.4650233 L182.625382,51.0199734 L182.560532,50.8251561 C180.350565,53.4901395 177.686379,55.3099402 172.746578,55.3099402 C165.661502,55.3099402 160.917581,51.1499402 160.917581,41.6620997 L160.917581,23.2030963 L168.716651,23.2030963 Z M68.8647973,22.2938073 C78.6139003,22.2938073 85.7636678,29.8326777 85.7636678,39.3866977 C85.7636678,49.0055681 78.6139003,56.5447043 68.8647973,56.5447043 C59.0508439,56.5447043 52.0318405,49.0055681 52.0318405,39.3866977 C52.0318405,29.8326777 59.1808106,22.2938073 68.8647973,22.2938073 Z M140.867801,22.2935681 C150.291854,22.2935681 156.206007,29.1174884 156.206007,38.9976213 L156.206007,41.9865914 L131.96388,41.9865914 C132.28893,46.0814751 135.798831,50.1104452 140.932917,50.1104452 C145.48202,50.1104452 148.081887,47.3806113 148.861953,45.1706445 L155.427003,47.1855282 C153.541821,52.3855282 148.861953,56.5444651 140.932917,56.5444651 C131.638831,56.5444651 124.48986,49.3965581 124.48986,39.3864585 C124.48986,29.572505 131.638831,22.2935681 140.867801,22.2935681 Z M204.741262,10.1396545 L204.741262,26.8426445 C206.495415,24.5686246 209.875349,22.2938073 214.815415,22.2938073 C224.110299,22.2938073 230.479203,29.897794 230.479203,39.3866977 C230.479203,48.8756013 223.784186,56.5447043 214.750299,56.5447043 C209.356279,56.5447043 206.041462,53.8156678 204.416478,51.6697542 L203.376478,55.6346711 L196.942458,55.6346711 L196.942458,10.1396545 L204.741262,10.1396545 Z M36.6559468,22.2941262 C42.7000664,22.2941262 47.12,25.8680797 47.12,34.1870166 L47.12,55.63499 L39.3209302,55.63499 L39.3209302,36.3321329 C39.3209302,31.3920664 37.1760797,29.5082126 33.7958804,29.5082126 C30.2219269,29.5082126 27.492093,32.1080797 27.492093,37.2421661 L27.492093,55.63499 L19.6930233,55.63499 L19.6930233,36.3321329 C19.6930233,31.3920664 17.3530897,29.5082126 14.1039203,29.5082126 C10.5940199,29.5082126 7.79906977,32.0421661 7.79906977,37.2421661 L7.79906977,55.63499 L-1.13686838e-13,55.63499 L-1.13686838e-13,23.2030963 L6.43401993,23.2030963 L7.47401993,27.0380465 C9.42405316,24.4381794 12.869103,22.2941262 17.4830565,22.2941262 C22.3569435,22.2941262 24.9578738,24.6329967 26.25701,27.1680133 C28.2718937,24.5681462 31.6518272,22.2941262 36.6559468,22.2941262 Z M108.138525,22.2941262 C115.483641,22.2941262 119.772545,26.5181794 119.772545,36.0070831 L119.772545,55.63499 L111.973475,55.63499 L111.973475,37.0470831 C111.973475,31.3280133 109.308492,29.5082126 105.669688,29.5082126 C101.704505,29.5082126 98.5196545,32.3031628 98.5196545,37.8271495 L98.5196545,55.63499 L90.7205847,55.63499 L90.7205847,23.2030963 L97.1556678,23.2030963 L98.2605183,27.1031628 C100.274605,24.4381794 103.329488,22.2941262 108.138525,22.2941262 Z M276.407973,23.2028571 L283.752027,33.5366777 L291.095017,23.2028571 L299.673887,23.2028571 L288.1701,39.1916944 L300,55.6347508 L291.356013,55.6347508 L283.752027,44.9107641 L276.146977,55.6347508 L267.568106,55.6347508 L279.332093,39.2568106 L267.698073,23.2028571 L276.407973,23.2028571 Z M247.806512,38.7699003 C257.121329,38.7699003 264.672425,46.3207309 264.672425,55.6347508 L264.672425,55.6347508 L230.941395,55.6347508 C230.941395,46.3207309 238.491429,38.7699003 247.806512,38.7699003 Z M213.646246,29.3128106 C208.446246,29.3128106 204.741262,33.4728106 204.741262,39.3866977 C204.741262,45.3005847 208.446246,49.525701 213.646246,49.525701 C218.844385,49.525701 222.679336,45.3005847 222.679336,39.3866977 C222.679336,33.536598 218.844385,29.3128106 213.646246,29.3128106 Z M68.8647973,29.5076279 C63.6007442,29.5076279 59.8309103,33.6676279 59.8309103,39.3866977 C59.8309103,45.1706179 63.6007442,49.3306179 68.8647973,49.3306179 C74.0647973,49.3306179 77.9638007,45.1706179 77.9638007,39.3866977 C77.9638007,33.6676279 74.0647973,29.5076279 68.8647973,29.5076279 Z M140.932917,28.727588 C135.667801,28.727588 132.743947,32.3026047 132.028997,36.0065249 L149.31697,36.0065249 C149.121887,33.0826711 146.52202,28.727588 140.932917,28.727588 Z M247.806512,0.455906977 C257.121329,0.455906977 264.672425,8.00673754 264.672425,17.3218206 C264.672425,26.6369037 257.121329,34.1877342 247.806512,34.1877342 C238.491429,34.1877342 230.941395,26.6369037 230.941395,17.3218206 C230.941395,8.00673754 238.491429,0.455906977 247.806512,0.455906977 Z" id="Logo"></path></g></g></svg> 