<svg width="30" height="30" viewBox="0 0 30 30" fill="none" xmlns="http://www.w3.org/2000/svg">
<path d="M21.773 28.9685C21.1218 28.9657 20.4896 28.749 19.9736 28.3518L15.1769 24.7176C15.1271 24.6773 15.0649 24.6553 15.0008 24.6553C14.9367 24.6553 14.8746 24.6773 14.8248 24.7176L10.0348 28.3518C9.51893 28.7493 8.88662 28.9659 8.2354 28.9685C7.75907 28.9638 7.29041 28.8479 6.86683 28.63C6.44324 28.4121 6.07647 28.0981 5.79577 27.7133C5.50356 27.3156 5.30994 26.8542 5.23086 26.3671C5.15177 25.88 5.18947 25.3811 5.34087 24.9114L7.17228 19.028C7.20014 18.9416 7.20173 18.8489 7.17683 18.7616C7.15193 18.6743 7.10168 18.5964 7.03244 18.5377L2.23909 14.9085C1.71179 14.513 1.32438 13.9595 1.13319 13.3287C0.941999 12.6979 0.956982 12.0225 1.17596 11.4007C1.369 10.7928 1.75073 10.2622 2.26577 9.88591C2.7808 9.50963 3.40233 9.30726 4.04018 9.30816H9.9691C10.0443 9.30383 10.1162 9.27547 10.1741 9.22725C10.2321 9.17902 10.273 9.11349 10.2909 9.04028L12.1156 3.1619C12.299 2.53789 12.6795 1.99004 13.2002 1.60033C13.7209 1.21061 14.3538 1 15.0042 1C15.6546 1 16.2875 1.21061 16.8082 1.60033C17.329 1.99004 17.7095 2.53789 17.8929 3.1619L19.726 9.04028C19.7435 9.11245 19.7834 9.17723 19.84 9.22534C19.8966 9.27346 19.967 9.30245 20.041 9.30816H25.9598C26.5977 9.30726 27.2192 9.50963 27.7342 9.88591C28.2493 10.2622 28.631 10.7928 28.824 11.4007C29.043 12.0225 29.058 12.6979 28.8668 13.3287C28.6756 13.9595 28.2882 14.513 27.7609 14.9085L22.9676 18.5427C22.8983 18.6014 22.8481 18.6793 22.8232 18.7666C22.7983 18.8539 22.7999 18.9466 22.8277 19.033L24.6591 24.9114C24.8105 25.3808 24.8482 25.8795 24.7691 26.3663C24.69 26.8531 24.4964 27.3142 24.2042 27.7116C23.9247 28.0958 23.5594 28.4095 23.1374 28.6277C22.7153 28.8459 22.2481 28.9626 21.773 28.9685V28.9685Z" fill="#00A82D"/>
</svg>
